# xmcd
#
# Track frame offsets:
#	150
#	12615
#	25006
#	37229
#	51096
#	59444
#	69839
#	80444
#	93694
#	103709
#	117936
#	128586
#	140836
#	153286
#
# Disc length: 2198 seconds
#
# Revision: 1
# Processed by: cddbd v1.5.2PL0 Copyright (c) Steve Scherf et al.
# Submitted via: audiograbber 1.83.01
#
DISCID=bf08940e
DTITLE=Chuck Berry - Opus Collection
DYEAR=2006
DGENRE=Rock and Roll
TTITLE0=You Can't Catch Me
TTITLE1=No Particular Place To Go
TTITLE2=You Never Can Tell
TTITLE3=Sweet Little Sixteen
TTITLE4=I'm Talking About You
TTITLE5=Brown Eyed Handsome Man
TTITLE6=Maybellene
TTITLE7=Too Much Monkey Business
TTITLE8=Memphis
TTITLE9=Havana Moon
TTITLE10=Almost Grown
TTITLE11=School Day
TTITLE12=Little Queenie
TTITLE13=Nadine
EXTD=
EXTT0=
EXTT1=
EXTT2=
EXTT3=
EXTT4=
EXTT5=
EXTT6=
EXTT7=
EXTT8=
EXTT9=
EXTT10=
EXTT11=
EXTT12=
EXTT13=
PLAYORDER=
